2.5Hzlow3min_grf.mot
version=1
nRows=12
nColumns 19
inDegrees=yes
endheader
time	1_ground_force_vx	1_ground_force_vy	1_ground_force_vz	1_ground_force_px	1_ground_force_py	1_ground_force_pz	1_ground_torque_x	1_ground_torque_y	1_ground_torque_z	2_ground_force_vx	2_ground_force_vy	2_ground_force_vz	2_ground_force_px	2_ground_force_py	2_ground_force_pz	2_ground_torque_x	2_ground_torque_y	2_ground_torque_z
            2.502500	           -0.173651	          947.275572	          -33.174083	           -0.178585	            0.006282	           -0.416811	           -0.000357	            1.946961	           -0.068184	           42.036442	          832.725844	           46.548281	           -0.239145	            0.005462	           -0.653427	            0.116270	            2.303260	            0.128749
            2.503000	           -0.078845	          940.782683	          -32.422590	           -0.178401	            0.006282	           -0.416853	           -0.000168	            2.007092	           -0.069171	           41.538752	          827.754222	           45.873766	           -0.238986	            0.005463	           -0.653520	            0.120073	            2.392732	            0.132604
            2.503500	           -0.214461	          935.913623	          -32.030413	           -0.178269	            0.006283	           -0.416934	           -0.000421	            1.836415	           -0.062849	           41.419341	          821.861973	           45.571231	           -0.238985	            0.005463	           -0.653329	            0.117721	            2.335883	            0.129522
            2.504000	           -0.349226	          928.880709	          -31.464094	           -0.178085	            0.006284	           -0.417182	           -0.000661	            1.757284	           -0.059525	           40.783138	          816.337270	           44.988661	           -0.238945	            0.005463	           -0.653344	            0.122914	            2.460311	            0.135589
            2.504500	           -0.530655	          925.092902	          -30.975452	           -0.178011	            0.006282	           -0.416827	           -0.000968	            1.688359	           -0.056532	           40.291114	          809.889678	           45.106668	           -0.238676	            0.005464	           -0.653346	            0.123313	            2.478700	            0.138051
            2.505000	           -0.619727	          919.501926	          -30.357203	           -0.177865	            0.006283	           -0.416964	           -0.001117	            1.657824	           -0.054733	           39.792190	          805.285623	           44.668107	           -0.238761	            0.005463	           -0.653294	            0.124584	            2.521246	            0.139850
            2.505500	           -0.526042	          912.290137	          -30.113214	           -0.177686	            0.006284	           -0.417160	           -0.001012	            1.755743	           -0.057954	           39.625668	          799.395380	           43.755527	           -0.238614	            0.005464	           -0.653237	            0.121499	            2.451072	            0.134161
            2.506000	           -0.524111	          906.700359	          -29.770328	           -0.177526	            0.006284	           -0.417272	           -0.001061	            1.835497	           -0.060266	           39.224463	          793.686530	           43.359913	           -0.238520	            0.005464	           -0.653215	            0.123286	            2.494618	            0.136284
            2.506500	           -0.659886	          900.209785	          -29.568538	           -0.177447	            0.006285	           -0.417429	           -0.001282	            1.749331	           -0.057459	           38.870788	          787.793601	           43.010549	           -0.238428	            0.005464	           -0.653219	            0.127183	            2.577610	            0.140728
            2.507000	           -0.383206	          894.440354	          -29.364672	           -0.177093	            0.006285	           -0.417289	           -0.000745	            1.739638	           -0.057113	           38.887821	          783.007830	           42.430329	           -0.238412	            0.005465	           -0.653367	            0.124304	            2.502863	            0.135627
            2.507500	           -0.381128	          888.670083	          -28.976707	           -0.177094	            0.006285	           -0.417329	           -0.000677	            1.578026	           -0.051454	           38.305171	          775.641143	           41.981952	           -0.238256	            0.005464	           -0.653008	            0.126861	            2.568814	            0.139038
            2.508000	           -0.836423	          882.717658	          -28.175667	           -0.176958	            0.006285	           -0.417298	           -0.001325	            1.397954	           -0.044622	           37.952763	          769.380436	           41.490491	           -0.238254	            0.005464	           -0.652931	            0.125849	            2.551211	            0.137580
